<svg width="26" height="26" viewBox="0 0 26 26" fill="none" xmlns="http://www.w3.org/2000/svg">
<path d="M17.3332 17.3333L12.9998 13L8.6665 17.3333" stroke="#266FD5" stroke-width="2" stroke-linecap="round" stroke-linejoin="round"/>
<path d="M13 13V22.75" stroke="#266FD5" stroke-width="2" stroke-linecap="round" stroke-linejoin="round"/>
<path d="M22.0892 19.9225C23.1459 19.3465 23.9806 18.4349 24.4616 17.3318C24.9427 16.2287 25.0426 14.9968 24.7458 13.8306C24.449 12.6643 23.7722 11.6301 22.8223 10.8912C21.8724 10.1523 20.7035 9.75079 19.5001 9.74999H18.1351C17.8072 8.48167 17.196 7.30419 16.3475 6.30607C15.499 5.30795 14.4353 4.51516 13.2364 3.98732C12.0374 3.45947 10.7343 3.2103 9.42521 3.25853C8.11607 3.30677 6.8349 3.65115 5.67802 4.2658C4.52114 4.88044 3.51865 5.74935 2.74592 6.80721C1.97319 7.86506 1.45033 9.08432 1.21664 10.3733C0.982955 11.6623 1.04453 12.9876 1.39673 14.2494C1.74893 15.5111 2.38259 16.6767 3.25008 17.6583" stroke="#266FD5" stroke-width="2" stroke-linecap="round" stroke-linejoin="round"/>
<path d="M17.3332 17.3333L12.9998 13L8.6665 17.3333" stroke="#266FD5" stroke-width="2" stroke-linecap="round" stroke-linejoin="round"/>
</svg>
